<?xml version="1.0" encoding="UTF-8"?>
<svg width="23px" height="15px" viewBox="0 0 23 15" version="1.1" xmlns="http://www.w3.org/2000/svg" xmlns:xlink="http://www.w3.org/1999/xlink">
    <!-- Generator: Sketch 48.2 (47327) - http://www.bohemiancoding.com/sketch -->
    <title>cloud</title>
    <desc>Created with Sketch.</desc>
    <defs></defs>
    <g id="Краб-тур" stroke="none" stroke-width="1" fill="none" fill-rule="evenodd" transform="translate(-1242.000000, -151.000000)">
        <g id="header" transform="translate(0.000000, 1.000000)" fill="#F57723" fill-rule="nonzero">
            <g id="Абхазия-термометр" transform="translate(1161.000000, 118.000000)">
                <g id="облако" transform="translate(61.000000, 23.000000)">
                    <g id="cloud" transform="translate(20.000000, 9.000000)">
                        <path d="M21.4307036,5.6156406 C20.4498934,4.61730449 19.1012793,4.01830283 17.6055437,4.01830283 C17.4339019,4.01830283 17.2622601,4.01830283 17.0906183,4.04326123 C16.575693,2.89517471 15.7665245,1.94675541 14.7857143,1.24792013 C13.6577825,0.449251248 12.3091684,0 10.8869936,0 C9.19509595,0 7.65031983,0.623960067 6.42430704,1.67221298 C5.34541578,2.62063228 4.56076759,3.89351082 4.21748401,5.39101498 C3.11407249,5.51580699 2.13326226,6.01497504 1.39765458,6.76372712 C0.539445629,7.63727121 0,8.83527454 0,10.1830283 C0,11.5058236 0.539445629,12.7287854 1.39765458,13.6023295 C2.25586354,14.4509151 3.43283582,15 4.75692964,15 L17.6055437,15 C19.1012793,15 20.4498934,14.3760399 21.4307036,13.4026622 C22.4115139,12.4043261 23,11.031614 23,9.50915141 C23,7.98668885 22.3869936,6.61397671 21.4307036,5.6156406 Z M20.4498934,12.4542429 C19.6897655,13.2279534 18.6599147,13.6772047 17.5319829,13.6772047 L4.75692964,13.6772047 C3.80063966,13.6772047 2.91791045,13.2778702 2.30490405,12.6289517 C1.6673774,11.9800333 1.2750533,11.1064892 1.2750533,10.1331115 C1.2750533,9.18469218 1.6673774,8.31114809 2.2803838,7.66222962 C2.91791045,7.01331115 3.7761194,6.61397671 4.73240938,6.61397671 C4.83049041,6.61397671 4.92857143,6.5890183 5.0021322,6.5391015 L5.02665245,6.5391015 C5.17377399,6.43926789 5.27185501,6.28951747 5.29637527,6.08985025 C5.49253731,4.6921797 6.20362473,3.49417637 7.18443497,2.64559068 C8.1652452,1.79700499 9.44029851,1.27287854 10.8134328,1.27287854 C11.9904051,1.27287854 13.0938166,1.64725458 14.0010661,2.29617304 C14.7366738,2.8202995 15.3496802,3.49417637 15.7665245,4.31780366 C15.619403,4.36772047 15.4722814,4.44259567 15.3251599,4.49251248 C14.6385928,4.81697171 14.0255864,5.26622296 13.510661,5.86522463 C13.2899787,6.13976705 13.3144989,6.5391015 13.5597015,6.76372712 C13.8294243,6.98835275 14.2217484,6.96339434 14.4424307,6.71381032 C14.8347548,6.26455907 15.3006397,5.91514143 15.8400853,5.6655574 C16.3550107,5.41597338 16.9434968,5.29118136 17.5319829,5.29118136 C18.684435,5.29118136 19.7142857,5.76539101 20.4498934,6.51414309 C21.2100213,7.28785358 21.6513859,8.33610649 21.6513859,9.48419301 C21.6513859,10.6572379 21.1855011,11.7054908 20.4498934,12.4542429 Z" id="Shape"></path>
                    </g>
                </g>
            </g>
        </g>
    </g>
</svg>