<?xml version="1.0" encoding="UTF-8"?>
<svg width="53px" height="44px" viewBox="0 0 53 44" version="1.1" xmlns="http://www.w3.org/2000/svg" xmlns:xlink="http://www.w3.org/1999/xlink">
    <!-- Generator: Sketch 48.2 (47327) - http://www.bohemiancoding.com/sketch -->
    <title>crab-with-two-claws</title>
    <desc>Created with Sketch.</desc>
    <defs></defs>
    <g id="Краб-тур" stroke="none" stroke-width="1" fill="none" fill-rule="evenodd" transform="translate(-693.000000, -889.000000)">
        <g id="body" transform="translate(-2.000000, 829.000000)" fill="#F57723" fill-rule="nonzero">
            <g id="крым" transform="translate(0.985475, 0.000000)">
                <g id="шапка-крыма" transform="translate(266.000000, 60.000000)">
                    <g id="crab-with-two-claws" transform="translate(428.482279, 0.000000)">
                        <path d="M41.2406936,28.7503642 C40.3347324,28.6807635 39.475179,28.6932451 38.6999455,28.749518 C38.6550244,28.2531107 38.5700674,27.768233 38.4481539,27.2980582 C39.013862,27.05435 39.6485977,26.8216426 40.3352634,26.6342073 C43.8862575,25.6657213 47.0491038,26.3786523 49.7360843,28.7534317 C50.1276303,29.0994253 50.6612671,29.1838347 51.1215221,29.0194586 C51.3326405,28.9440402 51.5283604,28.8161569 51.6877611,28.6372895 C52.1945302,28.0684256 52.1422816,27.197994 51.5710513,26.6933362 C48.1888033,23.7043149 44.050968,22.7653404 39.6049509,23.9780635 C38.9575779,24.1546038 38.3493913,24.3649925 37.7890993,24.589132 C40.5726122,22.6460249 43.4608348,18.7695421 40.7543142,16.4463814 C42.076459,15.3853413 43.0295714,13.2099498 43.0295714,10.7510784 C43.0295714,8.01993926 41.9977675,5.48438015 40.1242512,3.61161415 C39.0268179,2.51492745 37.6545485,1.65941028 36.0450364,1.06886227 C34.2686897,0.417069884 31.7829514,-0.247521408 29.3757983,0.0915967972 C29.1860254,0.124175839 29.0668731,0.208479397 29.0267309,0.368730202 C28.9864825,0.529086783 29.0406426,0.676856007 29.2037602,0.776920206 C29.2067337,0.7787184 29.3276914,0.859848676 29.7861411,1.10186441 C31.5121506,2.01291404 36.2999076,4.9572978 36.3393065,6.65109063 C36.3492889,7.08339759 35.8551572,7.44938293 35.0278876,6.72069131 C34.336443,6.11173825 32.3340043,4.83787658 30.6290217,4.83671304 C30.4720634,4.83660726 30.3205212,4.88674514 30.24629,5.02404253 C30.1718463,5.16155147 30.2168736,5.33068747 30.332309,5.4553975 C31.5380626,6.75813606 33.1148662,8.14295687 33.6390515,10.0643799 C33.9885437,11.3457517 33.6206795,14.7817828 35.9299195,16.3419804 C34.7396706,17.5226533 34.0086148,19.5881434 33.7475842,21.4835455 C32.6007696,20.9043155 31.3143068,20.5599085 29.9518074,20.5137901 L29.9518074,18.9016565 C29.9518074,18.4038741 29.5466683,18.0003382 29.0469082,18.0003382 C28.5471481,18.0003382 28.1419028,18.4039799 28.1419028,18.9016565 L28.1419028,20.5083955 L23.8940481,20.5083955 L23.8940481,18.9016565 C23.8940481,18.4038741 23.4888028,18.0003382 22.9891489,18.0003382 C22.4893888,18.0003382 22.0842496,18.4039799 22.0842496,18.9016565 L22.0842496,20.5137901 C20.7217502,20.5599085 19.4352875,20.9042097 18.2884729,21.4835455 C18.0274422,19.5882492 17.2962802,17.5226533 16.1060314,16.3419804 C18.4153775,14.7817828 18.0475133,11.3458574 18.3970056,10.0643799 C18.9211908,8.14295687 20.4978883,6.75813606 21.703748,5.4553975 C21.8191835,5.33068747 21.8642107,5.16155147 21.7897671,5.02404253 C21.7155358,4.88663936 21.5639936,4.83660726 21.4070354,4.83671304 C19.7021589,4.83787658 17.699614,6.11173825 17.0081695,6.72069131 C16.1808998,7.44938293 15.6868743,7.08339759 15.6967506,6.65109063 C15.7361494,4.9572978 20.5239064,2.01291404 22.2499159,1.10186441 C22.7083657,0.859848676 22.8293233,0.7787184 22.8322968,0.776920206 C22.9954144,0.676856007 23.0496808,0.528981007 23.0094324,0.368730202 C22.9691839,0.208479397 22.8500316,0.124070063 22.6602587,0.0915967972 C20.2531057,-0.247521408 17.7673673,0.417069884 15.9910207,1.06886227 C14.3815086,1.65941028 13.0091329,2.51492745 11.9119121,3.61161415 C10.0381834,5.48438015 9.00648567,8.01993926 9.00648567,10.7510784 C9.00648567,13.2099498 9.95959806,15.3853413 11.2817428,16.4463814 C8.57522223,18.7695421 11.4634448,22.6460249 14.2468516,24.589132 C13.6866657,24.3648867 13.078373,24.1546038 12.4311061,23.9780635 C7.98508902,22.7653404 3.84725379,23.7043149 0.465005717,26.6932304 C-0.106118342,27.1978882 -0.158366954,28.0683198 0.34829591,28.6371837 C0.507696656,28.8160511 0.70341656,28.9440402 0.914534936,29.0193528 C1.37478999,29.1838347 1.90842673,29.0993196 2.29997273,28.7533259 C4.9870594,26.3785465 8.14990578,25.6656155 11.7007937,26.6341016 C12.3875656,26.8215368 13.0220889,27.0542443 13.5880093,27.2979524 C13.4660959,27.7680214 13.3811388,28.2528991 13.3362177,28.7493064 C12.5608781,28.6930335 11.7012185,28.6805519 10.7953635,28.7502584 C6.19939712,29.1034448 2.6224911,31.3784774 0.451624975,35.3291093 C0.0850351176,35.9961334 0.33077351,36.833034 1.00066019,37.1981731 C1.21124758,37.313046 1.4387202,37.3675206 1.66300693,37.3674149 C2.1518288,37.3674149 2.62578319,37.1085807 2.87704379,36.6512048 C4.58786725,33.5378966 7.29502503,31.8056013 10.9231177,31.5029758 C11.8594511,31.4248073 12.7449164,31.4543188 13.5121851,31.5292083 C13.5623098,31.7554634 13.6207178,31.978651 13.6874091,32.1982422 C12.0808705,32.5181092 10.2124516,33.2365405 8.95094497,34.8150374 C7.37021206,36.7930506 7.12988968,39.5598363 8.23634962,43.0383894 C8.42304283,43.6251295 8.96740541,44 9.55392794,44 C9.69230181,43.9998942 9.83301199,43.9790563 9.97191684,43.935265 C10.6997867,43.7055193 11.1028019,42.9315555 10.8723558,42.2066719 C10.0625023,39.6609582 10.1421496,37.7532861 11.1090675,36.5369666 C12.049224,35.354284 13.6953738,34.9275831 14.9512521,34.7803428 C16.5977205,37.1116482 19.3195334,38.6350358 22.3985909,38.6350358 L29.6377848,38.6350358 C32.7152493,38.6350358 35.435894,37.1131291 37.0825749,34.7838334 C38.3380283,34.9326604 39.9855587,35.3586208 40.9218921,36.5303027 C41.8938012,37.7465164 41.9752538,39.6564099 41.1639136,42.2067776 C40.9332551,42.9316613 41.3364827,43.7055193 42.0642464,43.9353708 C42.2031513,43.9791621 42.3438614,44 42.4822353,44 C43.0687578,44 43.6131204,43.6251295 43.7997074,43.0384952 C44.9062736,39.5599421 44.665845,36.7931564 43.0852183,34.8151431 C41.8237116,33.2365405 39.9552928,32.5182149 38.3487541,32.198348 C38.4156578,31.9780164 38.4743844,31.7540883 38.5245091,31.526987 C39.2654412,31.4553766 40.1190476,31.4264997 41.0279823,31.4962062 C44.6985535,31.7784168 47.4342781,33.5128277 49.1590133,36.6514164 C49.4101677,37.1086865 49.8839097,37.3676264 50.3729439,37.3676264 C50.5972306,37.3676264 50.8248095,37.313046 51.0355031,37.1981731 C51.7052835,36.8331397 51.9510219,35.996345 51.5844321,35.329215 C49.4136721,31.3784774 45.8367661,29.1035506 41.2406936,28.7503642 Z" id="Shape"></path>
                    </g>
                </g>
            </g>
        </g>
    </g>
</svg>