<?xml version="1.0" encoding="UTF-8"?>
<svg width="50px" height="52px" viewBox="0 0 50 52" version="1.1" xmlns="http://www.w3.org/2000/svg" xmlns:xlink="http://www.w3.org/1999/xlink">
    <!-- Generator: Sketch 48.2 (47327) - http://www.bohemiancoding.com/sketch -->
    <title>forest-view</title>
    <desc>Created with Sketch.</desc>
    <defs></defs>
    <g id="Краб-тур" stroke="none" stroke-width="1" fill="none" fill-rule="evenodd" transform="translate(-693.000000, -2212.000000)">
        <g id="body" transform="translate(-4.000000, 829.000000)" fill="#F57723" fill-rule="nonzero">
            <g id="абхазия" transform="translate(5.000000, 1333.000000)">
                <g id="forest-view" transform="translate(692.000000, 50.000000)">
                    <path d="M49.7322936,36.6023234 L42.5523431,27.7857438 L45.7334016,27.7857438 C46.1887411,27.7857438 46.6033871,27.5256965 46.8013934,27.1149486 C47.0000422,26.7044155 46.946391,26.2165449 46.6649629,25.8572479 L38.9926203,16.1183115 L41.2795984,16.1183115 C41.726585,16.1183115 42.1359837,15.8669647 42.3381664,15.4665284 C42.5403492,15.0660921 42.5002982,14.586922 42.23579,14.2241878 L32.1894065,0.486044552 C31.9661273,0.181420828 31.6111295,0 31.233322,0 C30.8555144,0 30.5004095,0.181420828 30.2770233,0.485829725 L20.2298901,14.223973 C19.965489,14.5867072 19.9261876,15.0659847 20.1274066,15.4663136 C20.3298035,15.8668573 20.7390951,16.1180966 21.1861888,16.1180966 L23.4749874,16.1180966 L21.7040679,18.3667912 L23.7955028,21.2264517 C24.0591542,21.5873599 24.2059723,21.9963893 24.2869311,22.4175563 C24.4064416,23.043775 24.3459367,23.6992101 24.0464107,24.2948161 C23.8544013,24.6747364 23.5891436,24.9997686 23.2726976,25.2564861 L27.1658934,30.196847 C27.855328,31.0765608 27.9866183,32.2948409 27.5020437,33.3010874 C27.3877804,33.5372889 27.2323953,33.7441666 27.0636241,33.9377252 C26.8444143,34.1891794 26.5970403,34.4117394 26.3094011,34.574363 L29.5117701,38.5067588 C30.2248713,39.3829279 30.3734028,40.6081898 29.8895777,41.629689 C29.4059669,42.6512956 28.3661393,43.3102753 27.2401056,43.3102753 L26.1678303,43.3102753 L26.1678303,50.8107215 C26.1678303,51.4678752 26.6993096,52 27.354476,52 L35.1119538,52 C35.7671201,52 36.2984923,51.4678752 36.2984923,50.8107215 L36.2984923,38.5445682 L48.8135829,38.5445682 C49.2715996,38.5445682 49.6886016,38.2792577 49.8847874,37.86518 C50.0821511,37.4493836 50.0225029,36.9580758 49.7322936,36.6023234 Z" id="Shape"></path>
                    <path d="M28.8831555,40.7419 C29.0834904,40.320882 29.0226608,39.8237502 28.7279803,39.4634057 L23.425581,32.9777493 L25.3768056,32.9777493 C25.838849,32.9777493 26.2610648,32.7142869 26.4620526,32.2987055 C26.663258,31.8830155 26.6093928,31.3893632 26.3234178,31.0254305 L20.6179548,23.8121262 L21.8897167,23.8121262 C22.3438163,23.8121262 22.7599382,23.5573625 22.9653876,23.1521109 C23.1699664,22.7466418 23.1302476,22.2616882 22.8613571,21.8944936 L15.0798546,11.2944516 C14.9439403,11.1090602 14.7288061,11 14.5000696,11 C14.2712243,11 14.056199,11.1090602 13.9201758,11.2944516 L6.13856456,21.8944936 C5.86978285,22.261797 5.8300641,22.7467506 6.03453407,23.1521109 C6.2399834,23.5574712 6.65610537,23.8121262 7.11042262,23.8121262 L8.38207567,23.8121262 L2.67650383,31.0254305 C2.3905288,31.3893632 2.33677246,31.8830155 2.53786906,32.2987055 C2.73907447,32.7142869 3.16129027,32.9777493 3.623116,32.9777493 L5.57444943,32.9777493 L0.272050151,39.4634057 C-0.0227391782,39.8237502 -0.0834599038,40.320882 0.116874963,40.7419 C0.316230464,41.1609608 0.74007854,41.4295337 1.2056041,41.4295337 L10.5058864,41.4295337 L10.5058864,43.2034201 L10.5058864,50.7960972 C10.5058864,51.4613318 11.0459527,52 11.7115955,52 L17.2887615,52 C17.9544043,52 18.4944705,51.4613318 18.4944705,50.7960972 L18.4944705,43.2034201 L18.4944705,41.4295337 L27.794644,41.4295337 C28.2598431,41.4296425 28.6838,41.1610695 28.8831555,40.7419 Z" id="Shape"></path>
                </g>
            </g>
        </g>
    </g>
</svg>