<?xml version="1.0" encoding="UTF-8"?>
<svg width="53px" height="48px" viewBox="0 0 53 48" version="1.1" xmlns="http://www.w3.org/2000/svg" xmlns:xlink="http://www.w3.org/1999/xlink">
    <!-- Generator: Sketch 48.2 (47327) - http://www.bohemiancoding.com/sketch -->
    <title>icon_rewiev</title>
    <desc>Created with Sketch.</desc>
    <defs></defs>
    <g id="О-нас" stroke="none" stroke-width="1" fill="none" fill-rule="evenodd" transform="translate(-694.000000, -3218.000000)">
        <g id="body" transform="translate(-2.000000, 728.000000)" fill="#F57723" fill-rule="nonzero">
            <g id="blok-отзывы" transform="translate(2.000000, 2430.000000)">
                <g id="icon_rewiev" transform="translate(694.000000, 60.000000)">
                    <path d="M26.433,0.0022 C11.856375,0.0022 0,8.6688 0,19.3176 C0,26.376 5.15025,32.768 13.50675,36.1714 C13.354875,37.5688 12.42,40.1732 8.400375,43.852 C7.732125,44.4674 7.570125,45.4466 8.002125,46.2354 C8.343,46.8644 8.994375,47.2486 9.703125,47.2486 C9.87525,47.2486 10.047375,47.2248 10.21275,47.1772 C10.692,47.0514 21.826125,43.9506 28.8225,38.5344 C42.336,37.6504 52.862625,29.266 52.862625,19.3176 C52.862625,8.6688 41.00625,0.0022 26.433,0.0022 Z M28.272375,35.9334 L27.853875,35.9538 L27.529875,36.219 C22.838625,39.9692 15.879375,42.6008 12.133125,43.8384 C15.70725,39.9454 16.308,37.001 16.11225,35.1276 L16.03125,34.3218 L15.2685,34.0362 C7.462125,31.119 2.61225,25.4784 2.61225,19.3176 C2.61225,10.1172 13.2975,2.6338 26.433,2.6338 C39.565125,2.6338 50.250375,10.1172 50.250375,19.3176 C50.250375,27.9706 40.5945,35.2636 28.272375,35.9334 Z" id="Shape"></path>
                    <path d="M20.401875,11.4058 L17.47575,11.4058 C16.736625,11.4058 16.1325,12.0144 16.1325,12.759 L16.1325,27.7326 C16.1325,28.4806 16.736625,29.0858 17.47575,29.0858 L20.401875,29.0858 C21.144375,29.0858 21.745125,28.4772 21.745125,27.7326 L21.745125,12.7624 C21.745125,12.0144 21.141,11.4058 20.401875,11.4058 Z" id="Shape"></path>
                    <path d="M35.3835,17.3218 L32.464125,17.3218 C31.71825,17.3218 31.1175,17.9304 31.1175,18.675 L31.1175,27.7326 C31.1175,28.4806 31.721625,29.0858 32.464125,29.0858 L35.3835,29.0858 C36.129375,29.0858 36.730125,28.4772 36.730125,27.7326 L36.730125,18.675 C36.730125,17.9304 36.126,17.3218 35.3835,17.3218 Z" id="Shape"></path>
                    <path d="M27.93825,7.7236 L25.0155,7.7236 C24.273,7.7236 23.67225,8.3322 23.67225,9.0768 L23.67225,27.7326 C23.67225,28.4806 24.276375,29.0858 25.0155,29.0858 L27.93825,29.0858 C28.677375,29.0858 29.278125,28.4772 29.278125,27.7326 L29.278125,9.0768 C29.278125,8.3322 28.677375,7.7236 27.93825,7.7236 Z M28.076625,27.1172 L24.975,27.1172 L24.975,9.6956 L28.107,9.6956 L28.076625,27.1172 Z" id="Shape"></path>
                </g>
            </g>
        </g>
    </g>
</svg>