<?xml version="1.0" encoding="UTF-8"?>
<svg width="36px" height="36px" viewBox="0 0 36 36" version="1.1" xmlns="http://www.w3.org/2000/svg" xmlns:xlink="http://www.w3.org/1999/xlink">
    <!-- Generator: Sketch 48.2 (47327) - http://www.bohemiancoding.com/sketch -->
    <title>icon_vk</title>
    <desc>Created with Sketch.</desc>
    <defs></defs>
    <g id="Краб-тур" stroke="none" stroke-width="1" fill="none" fill-rule="evenodd" transform="translate(-1142.000000, -5880.000000)">
        <g id="footer" transform="translate(0.000000, 5855.000000)">
            <g id="icon_vk" transform="translate(1142.000000, 25.000000)">
                <rect id="Rectangle" x="0" y="0" width="36" height="36"></rect>
                <circle id="Oval" stroke="#F57723" stroke-width="2" cx="18" cy="18" r="17"></circle>
                <path d="M17.98083,23.9540235 C17.98083,23.9540235 18.3417861,23.9153584 18.526666,23.7239188 C18.6958948,23.5485111 18.6900256,23.2174998 18.6900256,23.2174998 C18.6900256,23.2174998 18.6675269,21.6718374 19.4119377,21.4436188 C20.1455883,21.2191724 21.0875956,22.9383564 22.0873168,23.5994359 C22.8424877,24.0992535 23.4157134,23.9898595 23.4157134,23.9898595 L26.0871796,23.9540235 C26.0871796,23.9540235 27.4840503,23.8710349 26.8218084,22.8119874 C26.7670291,22.7252266 26.4354191,22.0283111 24.8360609,20.5967581 C23.160403,19.0982483 23.3853891,19.3406127 25.4024391,16.7481625 C26.6310592,15.1694933 27.122116,14.205694 26.9685385,13.7935803 C26.8227866,13.3993845 25.9189291,13.5040633 25.9189291,13.5040633 L22.91194,13.5219813 C22.91194,13.5219813 22.6889102,13.4927466 22.5235943,13.5879949 C22.3621912,13.6813571 22.2575237,13.8992021 22.2575237,13.8992021 C22.2575237,13.8992021 21.7821181,15.1204546 21.1472658,16.159698 C19.808109,18.351351 19.2730332,18.4673464 19.0539162,18.3315469 C18.5442736,18.0137384 18.6714397,17.0565405 18.6714397,16.3765999 C18.6714397,14.2519036 19.0059844,13.3663777 18.0209362,13.137216 C17.6942172,13.0608288 17.4535798,13.010847 16.6172182,13.0023595 C15.544132,12.991986 14.6363617,13.0061318 14.1218281,13.2484961 C13.7794578,13.4097581 13.5153436,13.770004 13.6767467,13.7907511 C13.8753215,13.8162135 14.3252938,13.9076896 14.5639748,14.2207829 C14.872108,14.6253522 14.8613478,15.5325683 14.8613478,15.5325683 C14.8613478,15.5325683 15.0384022,18.0335425 14.4475689,18.3438066 C14.0425938,18.5569364 13.4869758,18.1221894 12.2925927,16.1332925 C11.6812172,15.1147962 11.2195064,13.988792 11.2195064,13.988792 C11.2195064,13.988792 11.1304902,13.7784914 10.9710435,13.6653252 C10.7783379,13.5285826 10.5093327,13.4861453 10.5093327,13.4861453 L7.65200831,13.5040633 C7.65200831,13.5040633 7.22257818,13.5153799 7.06508786,13.6955028 C6.92520516,13.8548786 7.05432765,14.1858899 7.05432765,14.1858899 C7.05432765,14.1858899 9.29147277,19.2321617 11.8250127,21.7755732 C14.1482395,24.106798 16.7854687,23.9540235 16.7854687,23.9540235 L17.98083,23.9540235 Z" id="Shape" fill="#F57723"></path>
            </g>
        </g>
    </g>
</svg>