<?xml version="1.0" encoding="UTF-8"?>
<svg width="36px" height="36px" viewBox="0 0 36 36" version="1.1" xmlns="http://www.w3.org/2000/svg" xmlns:xlink="http://www.w3.org/1999/xlink">
    <!-- Generator: Sketch 48.2 (47327) - http://www.bohemiancoding.com/sketch -->
    <title>icon_instagram</title>
    <desc>Created with Sketch.</desc>
    <defs></defs>
    <g id="Краб-тур" stroke="none" stroke-width="1" fill="none" fill-rule="evenodd" transform="translate(-1091.000000, -5880.000000)">
        <g id="footer" transform="translate(0.000000, 5855.000000)">
            <g id="icon_instagram" transform="translate(1091.000000, 25.000000)">
                <rect id="Rectangle" x="0" y="0" width="36" height="36"></rect>
                <circle id="Oval" stroke="#F57723" stroke-width="2" cx="18" cy="18" r="17"></circle>
                <path d="M22.9078081,10 L13.0921919,10 C11.3875823,10 10,11.3866416 10,13.0921919 L10,22.9078081 C10,24.6133584 11.3875823,26 13.0921919,26 L22.9078081,26 C24.6124177,26 26,24.6133584 26,22.9078081 L26,13.0921919 C26,11.3866416 24.6124177,10 22.9078081,10 L22.9078081,10 Z M23.79492,11.8447789 L24.1486359,11.8428975 L24.1486359,14.5550329 L21.4449671,14.5634995 L21.4355597,11.8513641 L23.79492,11.8447789 L23.79492,11.8447789 Z M15.7168391,16.3574788 C16.2285983,15.6481656 17.060207,15.1834431 18,15.1834431 C18.939793,15.1834431 19.7714017,15.6481656 20.2831609,16.3574788 C20.6171214,16.8203198 20.8165569,17.3866416 20.8165569,18 C20.8165569,19.5522107 19.5531515,20.8156162 18,20.8156162 C16.4477893,20.8156162 15.1843838,19.5522107 15.1843838,18 C15.1843838,17.3866416 15.3838194,16.8203198 15.7168391,16.3574788 L15.7168391,16.3574788 Z M24.4412041,22.9078081 C24.4412041,23.7535278 23.7535278,24.4412041 22.9078081,24.4412041 L13.0921919,24.4412041 C12.2464722,24.4412041 11.5587959,23.7535278 11.5587959,22.9078081 L11.5587959,16.3574788 L13.9482596,16.3574788 C13.7412982,16.8654751 13.625588,17.4195673 13.625588,18 C13.625588,20.4120414 15.5879586,22.3753528 18,22.3753528 C20.4129821,22.3753528 22.3753528,20.4120414 22.3753528,18 C22.3753528,17.4195673 22.2577611,16.8654751 22.0526811,16.3574788 L24.4412041,16.3574788 L24.4412041,22.9078081 L24.4412041,22.9078081 Z" id="Shape" fill="#F57723"></path>
            </g>
        </g>
    </g>
</svg>