<svg xmlns="http://www.w3.org/2000/svg" xmlns:xlink="http://www.w3.org/1999/xlink" width="24" height="24" viewBox="0 0 24 24"><defs><path id="seuza" d="M833 3807a12 12 0 1 1 24 0 12 12 0 0 1-24 0z"/><path id="seuzc" d="M848.28 3801.67c1.13 0 2.06.92 2.06 2.06v6.55c0 1.13-.93 2.06-2.06 2.06h-6.55a2.06 2.06 0 0 1-2.06-2.06v-6.55c0-1.14.93-2.06 2.06-2.06zm.59 1.23h-1.58l.01 1.81h1.8v-1.81zm-5.39 3a1.87 1.87 0 0 0 1.52 2.98 1.88 1.88 0 1 0-1.52-2.97zm5.82 4.38v-4.37h-1.6a2.92 2.92 0 1 1-5.4 0h-1.6v4.37c0 .56.47 1.02 1.03 1.02h6.55c.56 0 1.02-.46 1.02-1.02z"/><clipPath id="seuzb"><use fill="#fff" xlink:href="#seuza"/></clipPath></defs><g><g transform="translate(-833 -3795)"><g/><g><use fill="#fff" fill-opacity="0" stroke="#f57723" stroke-miterlimit="50" stroke-width="4" clip-path="url(&quot;#seuzb&quot;)" xlink:href="#seuza"/></g><g><use fill="#f57723" xlink:href="#seuzc"/></g></g></g></svg>