<?xml version="1.0" encoding="UTF-8"?>
<svg width="43px" height="42px" viewBox="0 0 43 42" version="1.1" xmlns="http://www.w3.org/2000/svg" xmlns:xlink="http://www.w3.org/1999/xlink">
    <!-- Generator: Sketch 48.2 (47327) - http://www.bohemiancoding.com/sketch -->
    <title>instagram-logo</title>
    <desc>Created with Sketch.</desc>
    <defs></defs>
    <g id="Краб-тур" stroke="none" stroke-width="1" fill="none" fill-rule="evenodd" transform="translate(-695.000000, -4179.000000)">
        <g id="body" transform="translate(-2.000000, 829.000000)" fill="#F57723" fill-rule="nonzero">
            <g id="инста" transform="translate(3.972359, 3290.000000)">
                <g id="instagram-logo" transform="translate(693.628545, 60.000000)">
                    <path d="M30.2621774,0 L11.5341701,0 C5.17423257,0 0,5.1996309 0,11.5904816 L0,30.4095184 C0,36.8006175 5.17423257,42 11.5341701,42 L30.2621774,42 C36.6226094,42 41.796842,36.8003691 41.796842,30.4095184 L41.796842,11.5904816 C41.7970892,5.1996309 36.6226094,0 30.2621774,0 Z M38.0886708,30.4095184 C38.0886708,34.7458565 34.5777875,38.2735564 30.2624247,38.2735564 L11.5341701,38.2735564 C7.21905447,38.2738049 3.70841839,34.7458565 3.70841839,30.4095184 L3.70841839,11.5904816 C3.70841839,7.25439188 7.21905447,3.72644355 11.5341701,3.72644355 L30.2621774,3.72644355 C34.5775403,3.72644355 38.0884236,7.25439188 38.0884236,11.5904816 L38.0884236,30.4095184 L38.0886708,30.4095184 Z" id="Shape"></path>
                    <path d="M20.898421,10 C14.862269,10 9.95162905,14.9346219 9.95162905,21.0002525 C9.95162905,27.0656306 14.862269,32 20.898421,32 C26.934573,32 31.845213,27.0656306 31.845213,21.0002525 C31.845213,14.9346219 26.934573,10 20.898421,10 Z M20.898421,28.2120426 C16.9409106,28.2120426 13.7209259,24.9768376 13.7209259,21 C13.7209259,17.0229099 16.9406593,13.7874524 20.898421,13.7874524 C24.8561827,13.7874524 28.0759161,17.0229099 28.0759161,21 C28.0759161,24.9768376 24.8559314,28.2120426 20.898421,28.2120426 Z" id="Shape"></path>
                    <path d="M32.3427944,7 C31.6891533,7 31.0470471,7.26590909 30.5854272,7.73181818 C30.1215456,8.19545455 29.8548871,8.84090909 29.8548871,9.5 C29.8548871,10.1570455 30.1217717,10.8022727 30.5854272,11.2681818 C31.0468209,11.7318182 31.6891533,12 32.3427944,12 C32.9986972,12 33.6387679,11.7318182 34.1024234,11.2681818 C34.5660788,10.8022727 34.8307017,10.1568182 34.8307017,9.5 C34.8307017,8.84090909 34.5660788,8.19545455 34.1024234,7.73181818 C33.6410297,7.26590909 32.9986972,7 32.3427944,7 Z" id="Shape"></path>
                </g>
            </g>
        </g>
    </g>
</svg>