<?xml version="1.0" encoding="UTF-8"?>
<svg width="51px" height="58px" viewBox="0 0 51 58" version="1.1" xmlns="http://www.w3.org/2000/svg" xmlns:xlink="http://www.w3.org/1999/xlink">
    <!-- Generator: Sketch 48.2 (47327) - http://www.bohemiancoding.com/sketch -->
    <title>like (1)</title>
    <desc>Created with Sketch.</desc>
    <defs></defs>
    <g id="О-нас" stroke="none" stroke-width="1" fill="none" fill-rule="evenodd" transform="translate(-695.000000, -2094.000000)">
        <g id="body" transform="translate(-2.000000, 728.000000)" fill="#F57723" fill-rule="nonzero">
            <g id="blok-команда" transform="translate(2.000000, 1306.000000)">
                <g id="blok-gid">
                    <g id="like-(1)" transform="translate(695.000000, 60.000000)">
                        <path d="M49.6978,35.7672209 C50.507,34.8585273 51,33.6590974 51,32.3467933 C51,29.5180998 48.7118,27.216152 45.9,27.216152 L36.0014667,27.216152 C36.9818,24.2232779 37.4,20.2521615 37.4,18.5499287 L37.4,16.8408551 C37.4,13.0692637 34.3490667,10 30.6,10 L28.9,10 C28.1202667,10 27.4402667,10.5335867 27.251,11.2952019 L26.3250667,15.0223278 C25.0274,20.2419002 20.9077333,26.0007601 16.6441333,27.0474109 C15.8972667,25.1456532 14.0533333,23.7957245 11.9,23.7957245 L1.7,23.7957245 C0.7616,23.7957245 0,24.5619002 0,25.5059382 L0,56.2897862 C0,57.2338242 0.7616,58 1.7,58 L11.9,58 C13.9275333,58 15.6819333,56.8039905 16.5036,55.0755344 L22.3448,57.0342993 C24.2544667,57.6750594 26.2446,58 28.2585333,58 L42.5,58 C45.3118,58 47.6,55.6980523 47.6,52.8693587 C47.6,52.2023753 47.4730667,51.5638955 47.2418667,50.9790024 C49.4042667,50.3849881 51,48.3908789 51,46.0285036 C51,44.7161995 50.507,43.5167696 49.6978,42.608076 C50.507,41.6993824 51,40.4999525 51,39.1876485 C51,37.8753444 50.507,36.6759145 49.6978,35.7672209 Z M13.6,52.8693587 C13.6,53.8122565 12.8372667,54.5795724 11.9,54.5795724 L3.4,54.5795724 L3.4,27.216152 L11.9,27.216152 C12.8372667,27.216152 13.6,27.9834679 13.6,28.9263658 L13.6,52.8693587 Z M42.5,37.4774347 L45.9,37.4774347 C46.8372667,37.4774347 47.6,38.2447506 47.6,39.1876485 C47.6,40.1305463 46.8372667,40.8978622 45.9,40.8978622 L42.5,40.8978622 C41.5616,40.8978622 40.8,41.664038 40.8,42.608076 C40.8,43.552114 41.5616,44.3182898 42.5,44.3182898 L45.9,44.3182898 C46.8372667,44.3182898 47.6,45.0856057 47.6,46.0285036 C47.6,46.9714014 46.8372667,47.7387173 45.9,47.7387173 L42.5,47.7387173 C41.5616,47.7387173 40.8,48.5048931 40.8,49.4489311 C40.8,50.3929691 41.5616,51.1591449 42.5,51.1591449 C43.4372667,51.1591449 44.2,51.9264608 44.2,52.8693587 C44.2,53.8122565 43.4372667,54.5795724 42.5,54.5795724 L28.2585333,54.5795724 C26.6106667,54.5795724 24.9820667,54.3139192 23.4192,53.7894537 L17,51.6368646 L17,30.4746793 C19.6667333,29.9650356 22.2768,28.2662233 24.633,25.4854157 C26.9336667,22.7695962 28.7991333,19.1690261 29.6230667,15.8523515 L30.2271333,13.4204276 L30.6,13.4204276 C32.4745333,13.4204276 34,14.9550594 34,16.8408551 L34,18.5499287 C34,20.8461758 33.286,25.2505463 32.3725333,27.216152 L28.9,27.216152 C27.9616,27.216152 27.2,27.9823278 27.2,28.9263658 C27.2,29.8704038 27.9616,30.6365796 28.9,30.6365796 L45.9,30.6365796 C46.8372667,30.6365796 47.6,31.4038955 47.6,32.3467933 C47.6,33.2896912 46.8372667,34.0570071 45.9,34.0570071 L42.5,34.0570071 C41.5616,34.0570071 40.8,34.8231829 40.8,35.7672209 C40.8,36.7112589 41.5616,37.4774347 42.5,37.4774347 Z" id="Shape"></path>
                        <circle id="Oval" cx="8.5" cy="49.5" r="1.5"></circle>
                        <path d="M32.5,0 C31.6716,0 31,0.770688525 31,1.72131148 L31,5.27868852 C31,6.22931148 31.6716,7 32.5,7 C33.3284,7 34,6.22931148 34,5.27868852 L34,1.72131148 C34,0.770688525 33.3284,0 32.5,0 Z" id="Shape"></path>
                        <path d="M25.4852674,8.00002197 L23,5.51473636 C22.313807,4.82842121 21.2010427,4.82842121 20.5147326,5.51473636 C19.8284225,6.2010515 19.8284225,7.31370682 20.5147326,8.00002197 L23,10.4853076 C23.686193,11.1715056 24.7990745,11.1716227 25.4852674,10.4853076 C26.1715775,9.79899244 26.1715775,8.68633711 25.4852674,8.00002197 Z" id="Shape"></path>
                        <path d="M44.4852674,5.51473761 C43.7990745,4.8284208 42.6863101,4.8284208 42,5.51473761 L39.5147326,7.99991213 C38.8284225,8.68622895 38.8284225,9.79888699 39.5147326,10.4852038 C40.2009255,11.1715206 41.3136899,11.1716378 42,10.485321 L44.4852674,8.00002929 C45.1715775,7.31371247 45.1715775,6.20105443 44.4852674,5.51473761 Z" id="Shape"></path>
                    </g>
                </g>
            </g>
        </g>
    </g>
</svg>