<?xml version="1.0" encoding="UTF-8"?>
<svg width="55px" height="54px" viewBox="0 0 55 54" version="1.1" xmlns="http://www.w3.org/2000/svg" xmlns:xlink="http://www.w3.org/1999/xlink">
    <!-- Generator: Sketch 48.2 (47327) - http://www.bohemiancoding.com/sketch -->
    <title>map-location (1)</title>
    <desc>Created with Sketch.</desc>
    <defs></defs>
    <g id="Внутренняя-Тур" stroke="none" stroke-width="1" fill="none" fill-rule="evenodd" transform="translate(-840.000000, -1078.000000)">
        <g id="body" transform="translate(0.000000, 728.000000)" fill="#F57723" fill-rule="nonzero">
            <g id="blok-tour" transform="translate(249.000000, 61.000000)">
                <g id="маршрут" transform="translate(591.000000, 289.000000)">
                    <g id="map-location-(1)">
                        <path d="M51.688,22.013 L40.789,22.013 C40.236,22.013 39.789,22.46 39.789,23.013 C39.789,23.566 40.236,24.013 40.789,24.013 L49.891,24.013 L52.79,51.013 L2.268,51.013 L5.671,24.013 L14.789,24.013 C15.342,24.013 15.789,23.566 15.789,23.013 C15.789,22.46 15.342,22.013 14.789,22.013 L3.907,22.013 L0,53.013 L55.017,53.013 L51.688,22.013 Z" id="Shape"></path>
                        <path d="M17.48,44.164 C16.894,44.439 16.297,44.694 15.706,44.923 C15.191,45.121 14.935,45.7 15.134,46.216 C15.287,46.612 15.665,46.856 16.067,46.856 C16.187,46.856 16.309,46.835 16.427,46.789 C17.062,46.544 17.702,46.27 18.33,45.976 C18.83,45.742 19.045,45.146 18.81,44.646 C18.576,44.145 17.984,43.928 17.48,44.164 Z" id="Shape"></path>
                        <path d="M36.598,36.573 C36.619,37.111 37.063,37.532 37.596,37.532 C37.61,37.532 37.624,37.532 37.638,37.531 L39.64,37.449 C40.192,37.424 40.619,36.956 40.594,36.405 C40.569,35.852 40.09,35.401 39.549,35.451 L37.556,35.533 C37.004,35.555 36.575,36.021 36.598,36.573 Z" id="Shape"></path>
                        <path d="M31.427,36.171 C30.887,36.285 30.543,36.817 30.658,37.358 C30.758,37.828 31.173,38.149 31.635,38.149 C31.704,38.149 31.775,38.142 31.845,38.127 C32.431,38.003 33.066,37.898 33.731,37.814 C34.279,37.747 34.669,37.247 34.6,36.699 C34.532,36.15 34.038,35.749 33.485,35.83 C32.762,35.919 32.069,36.034 31.427,36.171 Z" id="Shape"></path>
                        <path d="M22.433,41.177 C21.919,41.565 21.388,41.938 20.853,42.284 C20.39,42.585 20.258,43.204 20.559,43.668 C20.75,43.963 21.072,44.123 21.399,44.123 C21.586,44.123 21.774,44.071 21.943,43.962 C22.516,43.59 23.087,43.19 23.638,42.774 C24.078,42.441 24.166,41.814 23.834,41.373 C23.501,40.936 22.876,40.845 22.433,41.177 Z" id="Shape"></path>
                        <path d="M9.994,47.842 C10.21,47.899 10.43,47.94 10.647,47.966 C10.903,47.997 11.159,48.013 11.416,48.013 C11.728,48.013 12.042,47.991 12.355,47.951 C12.903,47.882 13.292,47.382 13.222,46.834 C13.154,46.286 12.656,45.901 12.105,45.967 C11.702,46.019 11.294,46.031 10.89,45.982 C10.757,45.965 10.625,45.94 10.494,45.907 C9.961,45.764 9.414,46.09 9.276,46.625 C9.138,47.159 9.459,47.705 9.994,47.842 Z" id="Shape"></path>
                        <path d="M46.688,31.763 C46.524,32.29 46.82,32.851 47.347,33.014 C47.446,33.044 47.545,33.059 47.643,33.059 C48.07,33.059 48.465,32.784 48.598,32.355 C48.697,32.038 48.758,31.715 48.781,31.391 C48.786,31.308 48.789,31.225 48.789,31.141 C48.789,30.674 48.703,30.206 48.534,29.751 C48.342,29.232 47.763,28.97 47.249,29.161 C46.73,29.353 46.467,29.929 46.659,30.446 C46.745,30.678 46.789,30.912 46.789,31.14 L46.785,31.256 C46.774,31.422 46.741,31.592 46.688,31.763 Z" id="Shape"></path>
                        <path d="M10.201,40 C10.362,40 10.525,39.961 10.677,39.879 C10.967,39.722 11.274,39.624 11.59,39.59 C11.725,39.574 11.863,39.574 11.996,39.592 C12.559,39.662 13.046,39.278 13.118,38.732 C13.19,38.184 12.805,37.682 12.258,37.61 C11.96,37.57 11.657,37.569 11.367,37.602 C10.795,37.665 10.241,37.84 9.723,38.122 C9.238,38.386 9.057,38.992 9.321,39.477 C9.502,39.811 9.846,40 10.201,40 Z" id="Shape"></path>
                        <path d="M43.373,35.109 C42.832,35.22 42.484,35.75 42.596,36.291 C42.694,36.764 43.11,37.089 43.575,37.089 C43.641,37.089 43.71,37.082 43.778,37.068 C44.622,36.894 45.306,36.617 45.85,36.233 C45.909,36.194 45.964,36.153 46.019,36.111 C46.455,35.772 46.498,35.17 46.159,34.733 C45.822,34.298 45.157,34.243 44.721,34.584 C44.379,34.823 43.951,34.99 43.373,35.109 Z" id="Shape"></path>
                        <path d="M8.86,42.401 C9.005,41.868 8.689,41.319 8.156,41.175 C7.627,41.027 7.074,41.344 6.93,41.879 C6.804,42.343 6.729,42.817 6.705,43.285 C6.7,43.4 6.697,43.516 6.697,43.632 C6.697,43.829 6.706,44.027 6.725,44.224 C6.778,44.739 7.212,45.122 7.719,45.122 C7.752,45.122 7.786,45.12 7.822,45.117 C8.371,45.06 8.771,44.57 8.716,44.02 C8.702,43.891 8.697,43.76 8.697,43.631 C8.697,43.548 8.7,43.465 8.704,43.383 C8.72,43.058 8.772,42.727 8.86,42.401 Z" id="Shape"></path>
                        <path d="M44.698,26.81 C43.909,26.704 43.091,26.77 42.312,26.99 C41.78,27.139 41.471,27.692 41.622,28.223 C41.746,28.664 42.147,28.952 42.583,28.952 C42.674,28.952 42.765,28.94 42.855,28.914 C43.372,28.769 43.91,28.724 44.43,28.793 C44.992,28.866 45.482,28.482 45.555,27.936 C45.629,27.387 45.245,26.884 44.698,26.81 Z" id="Shape"></path>
                        <path d="M26.655,37.968 C26.508,38.055 26.348,38.133 26.208,38.224 C25.989,38.366 25.776,38.514 25.567,38.665 C25.121,38.99 25.022,39.616 25.347,40.062 C25.543,40.331 25.848,40.473 26.157,40.473 C26.361,40.473 26.567,40.41 26.745,40.282 C26.925,40.15 27.108,40.023 27.297,39.9 C27.613,39.695 27.953,39.501 28.307,39.323 C28.777,39.087 28.968,38.531 28.771,38.052 C28.779,38.044 28.789,38.038 28.797,38.029 C30.606,36.113 36.702,28.933 39.226,16.971 C39.738,14.545 39.853,12.217 39.568,10.053 C38.708,3.478 34.623,0.002 27.755,0.002 C20.889,0.002 16.804,3.478 15.942,10.053 C15.658,12.219 15.773,14.546 16.285,16.971 C18.784,28.821 24.788,35.975 26.655,37.968 Z M27.755,4.233 C31.806,4.233 35.101,7.528 35.101,11.579 C35.101,15.63 31.806,18.925 27.755,18.925 C23.704,18.925 20.409,15.63 20.409,11.579 C20.409,7.528 23.704,4.233 27.755,4.233 Z" id="Shape"></path>
                    </g>
                </g>
            </g>
        </g>
    </g>
</svg>