<?xml version="1.0" encoding="UTF-8"?>
<svg width="49px" height="43px" viewBox="0 0 49 43" version="1.1" xmlns="http://www.w3.org/2000/svg" xmlns:xlink="http://www.w3.org/1999/xlink">
    <!-- Generator: Sketch 48.2 (47327) - http://www.bohemiancoding.com/sketch -->
    <title>movie-symbol-of-video-camera</title>
    <desc>Created with Sketch.</desc>
    <defs></defs>
    <g id="Краб-тур" stroke="none" stroke-width="1" fill="none" fill-rule="evenodd" transform="translate(-689.000000, -3424.000000)">
        <g id="body" transform="translate(-2.000000, 829.000000)" fill="#F57723" fill-rule="nonzero">
            <g id="blok-video" transform="translate(1.000000, 2535.000000)">
                <g id="movie-symbol-of-video-camera" transform="translate(690.000000, 60.000000)">
                    <path d="M45.9375,18.4285714 L36.75,24.5714286 C36.75,22.7070514 35.90475,21.0577143 34.5970425,19.9304799 C37.7100637,18.04924 39.8125,14.6599085 39.8125,10.75 C39.8125,4.81286835 35.0135425,0 29.09375,0 C23.1739575,0 18.375,4.81294865 18.375,10.75 C18.375,13.7615257 19.6168137,16.4766685 21.6074788,18.4285714 L15.9908137,18.4285714 C17.4577712,16.7960971 18.375,14.6568571 18.375,12.2857143 C18.375,7.19637722 14.2620425,3.07142857 9.1875,3.07142857 C4.11295752,3.07142857 0,7.19637722 0,12.2857143 C0,15.0622857 1.25102124,17.5224799 3.18804248,19.2118058 C1.29697876,20.2576172 0,22.2524799 0,24.5714286 L0,36.8571429 C0,40.2495257 2.74247876,43 6.125,43 L30.625,43 C34.0075212,43 36.75,40.2495257 36.75,36.8571429 L45.9375,43 C47.6295212,43 49,41.6255257 49,39.9285714 L49,21.5 C49,19.8030458 47.6295212,18.4285714 45.9375,18.4285714 Z M9.1875,18.4285714 C5.80497876,18.4285714 3.0625,15.6780971 3.0625,12.2857143 C3.0625,8.89333147 5.80497876,6.14285714 9.1875,6.14285714 C12.5700212,6.14285714 15.3125,8.89333147 15.3125,12.2857143 C15.3125,15.6780971 12.5700212,18.4285714 9.1875,18.4285714 Z M29.09375,18.4454342 C24.85525,18.4454342 21.4206863,14.9992512 21.4206863,10.75 C21.4206863,6.49914286 24.8568513,3.05456583 29.09375,3.05456583 C33.3306487,3.05456583 36.7668137,6.49914286 36.7668137,10.75 C36.7668137,15.0008571 33.3321699,18.4454342 29.09375,18.4454342 Z" id="Shape"></path>
                </g>
            </g>
        </g>
    </g>
</svg>