<?xml version="1.0" encoding="UTF-8"?>
<svg width="44px" height="37px" viewBox="0 0 44 37" version="1.1" xmlns="http://www.w3.org/2000/svg" xmlns:xlink="http://www.w3.org/1999/xlink">
    <!-- Generator: Sketch 48.2 (47327) - http://www.bohemiancoding.com/sketch -->
    <title>photo-camera copy 4</title>
    <desc>Created with Sketch.</desc>
    <defs></defs>
    <g id="Внутренняя-Тур" stroke="none" stroke-width="1" fill="none" fill-rule="evenodd" transform="translate(-700.000000, -1915.000000)">
        <g id="body" transform="translate(0.000000, 728.000000)" fill="#F57723" fill-rule="nonzero" stroke="#F57723">
            <g id="галерея" transform="translate(0.000000, 1128.000000)">
                <g id="photo-camera-copy-4" transform="translate(701.000000, 60.000000)">
                    <path d="M0,10.6139802 L0,29.4697116 C0,32.3477835 2.3035778,34.6851267 5.14007286,34.6851267 L36.977581,34.6851267 C39.8140761,34.6851267 42.1176539,32.3477835 42.1176539,29.4697116 L42.1176539,10.6139802 C42.1176539,7.8754512 39.9258168,5.65148657 37.2268487,5.65148657 L30.3848789,5.65148657 L30.2215655,4.92760789 C29.5597167,2.02337174 27.0412529,0 24.1016125,0 L18.0074459,0 C15.076401,0 12.5579372,2.02337174 11.8874929,4.92760789 L11.7241796,5.65148657 L4.89080511,5.65148657 C2.19183709,5.65148657 0,7.88417263 0,10.6139802 Z M12.5665326,7.7882369 C13.0564727,7.7882369 13.4776492,7.44810113 13.5893899,6.95970106 L13.941803,5.40728654 C14.3887658,3.47985053 16.0562811,2.13675032 18.0074459,2.13675032 L24.1016125,2.13675032 C26.0527773,2.13675032 27.7202926,3.47985053 28.1672554,5.40728654 L28.5196685,6.95970106 C28.6314092,7.4393797 29.0525857,7.7882369 29.5425258,7.7882369 L37.2182533,7.7882369 C38.756837,7.7882369 40.0031757,9.05284423 40.0031757,10.6139802 L40.0031757,29.4697116 C40.0031757,31.1703905 38.6450963,32.5483764 36.9689856,32.5483764 L5.14007286,32.5483764 C3.46396214,32.5483764 2.10588269,31.1703905 2.10588269,29.4697116 L2.10588269,10.6139802 C2.10588269,9.05284423 3.35222143,7.7882369 4.89080511,7.7882369 L12.5665326,7.7882369 Z" id="Shape"></path>
                    <circle id="Oval" cx="7.43252715" cy="12.3875453" r="1.23875453"></circle>
                    <path d="M21.0588269,28.4913541 C25.8368801,28.4913541 29.7301086,24.5981256 29.7301086,19.8200724 C29.7301086,15.0420192 25.8368801,11.1487907 21.0588269,11.1487907 C16.2807738,11.1487907 12.3875453,15.0335923 12.3875453,19.8200724 C12.3875453,24.6065525 16.2807738,28.4913541 21.0588269,28.4913541 Z M21.0588269,13.2133816 C24.6992484,13.2133816 27.6655177,16.1796509 27.6655177,19.8200724 C27.6655177,23.4604939 24.6992484,26.4267632 21.0588269,26.4267632 C17.4184055,26.4267632 14.4521361,23.4604939 14.4521361,19.8200724 C14.4521361,16.1796509 17.4184055,13.2133816 21.0588269,13.2133816 Z" id="Shape"></path>
                </g>
            </g>
        </g>
    </g>
</svg>