<?xml version="1.0" encoding="UTF-8"?>
<svg width="40px" height="37px" viewBox="0 0 40 37" version="1.1" xmlns="http://www.w3.org/2000/svg" xmlns:xlink="http://www.w3.org/1999/xlink">
    <!-- Generator: Sketch 48.2 (47327) - http://www.bohemiancoding.com/sketch -->
    <title>Shape</title>
    <desc>Created with Sketch.</desc>
    <defs></defs>
    <g id="Внутренняя-Тур" stroke="none" stroke-width="1" fill="none" fill-rule="evenodd" transform="translate(-277.000000, -1767.000000)">
        <g id="body" transform="translate(0.000000, 728.000000)" fill="#F57723" fill-rule="nonzero">
            <g id="blok-tour" transform="translate(249.000000, 61.000000)">
                <g id="цена" transform="translate(1.000000, 967.000000)">
                    <g id="size-tag" transform="translate(27.000000, 11.000000)">
                        <path d="M39.8256255,26.3679307 L28.8406459,6.87931044 C28.5207203,6.42098019 27.8141096,5.92866728 27.2782992,5.78402314 L15.4020363,2.58703897 C14.8627579,2.44152348 14.3061394,2.76653713 14.1630832,3.30764565 L13.8674338,4.40467565 C13.1157387,3.98119942 12.3302303,3.56033723 11.4909674,3.1508026 C7.56255837,1.23731739 3.68790376,0 1.62529394,0 C0.877933843,0 0.378537769,0.166427903 0.145312867,0.495798308 C0.0430060325,0.636957053 -0.0549657666,0.88093513 0.0360699759,1.24167414 C0.404547981,2.69682911 3.8760443,5.28212538 8.48071886,7.52410964 C9.87573323,8.20376286 11.2655456,8.79628105 12.5721252,9.27813775 L10.9820343,15.241659 C10.8407121,15.7818962 10.9118067,16.6401762 11.1458986,17.1490448 L22.4499368,36.4564242 C22.6840287,36.9652928 23.2666575,37.1482764 23.7530484,36.8703156 L39.5351782,27.7106815 C40.0146331,27.4292354 40.1438171,26.8271323 39.8256255,26.3679307 Z M18.2215433,8.93482574 C18.4521672,8.8006378 18.7053333,8.74225733 18.9541643,8.68649091 C19.2342076,9.01847537 19.4275501,9.31734851 19.4917087,9.54999904 C19.529857,9.70161398 19.5185859,9.82011762 19.4492253,9.91248075 C19.3139722,10.1076632 18.918617,10.2130966 18.3455253,10.2130966 C18.0212647,10.2130966 17.6328455,10.1712718 17.2192831,10.1076632 C17.4308329,9.63887676 17.7438224,9.21191513 18.2215433,8.93482574 Z M8.68099749,7.10673286 C3.67056362,4.66695208 0.76608993,2.25331182 0.478243583,1.12752726 C0.441829286,0.97504096 0.454834392,0.856537322 0.520726929,0.765916894 C0.659448061,0.569863081 1.05393628,0.464429698 1.62702795,0.464429698 C3.62547925,0.464429698 7.42123621,1.68257738 11.2906888,3.56817938 C12.181972,4.00385452 12.9874216,4.43691561 13.7451858,4.86387725 L12.6900382,8.83374911 C11.4103358,8.35712051 10.0517357,7.77505852 8.68099749,7.10673286 Z M20.753204,13.3395014 C19.5437291,14.040067 17.9943875,13.627047 17.2947127,12.4071566 C16.958314,11.8189952 16.8932885,11.1541549 17.0398127,10.5407243 C17.5192676,10.6200172 17.9735793,10.6722982 18.3481263,10.6722982 C19.0954864,10.6722982 19.5931485,10.5067416 19.8263734,10.1764999 C19.9269462,10.0327271 20.0292531,9.79223441 19.9382173,9.4314954 C19.8792608,9.19535947 19.7127955,8.92262684 19.4943097,8.63159584 C20.3656518,8.6376953 21.2161857,9.05071533 21.6800345,9.86107109 C22.3788422,11.0827042 21.9618118,12.6415498 20.753204,13.3395014 Z" id="Shape"></path>
                    </g>
                </g>
            </g>
        </g>
    </g>
</svg>