<?xml version="1.0" encoding="UTF-8"?>
<svg width="23px" height="23px" viewBox="0 0 23 23" version="1.1" xmlns="http://www.w3.org/2000/svg" xmlns:xlink="http://www.w3.org/1999/xlink">
    <!-- Generator: Sketch 48.2 (47327) - http://www.bohemiancoding.com/sketch -->
    <title>shining-sun</title>
    <desc>Created with Sketch.</desc>
    <defs></defs>
    <g id="Краб-тур" stroke="none" stroke-width="1" fill="none" fill-rule="evenodd" transform="translate(-1242.000000, -94.000000)">
        <g id="header" transform="translate(0.000000, 1.000000)" fill="#F57723" fill-rule="nonzero">
            <g id="Крым-термометр" transform="translate(1161.000000, 64.000000)">
                <g id="солнце" transform="translate(61.000000, 23.000000)">
                    <g id="shining-sun" transform="translate(20.000000, 6.000000)">
                        <path d="M22.3678361,11 L19.6321639,11 C19.2758461,11 19,11.2173112 19,11.4961482 C19,11.7749851 19.2758461,12 19.6321639,12 L22.3678361,12 C22.7241208,12 23,11.7749851 23,11.4961482 C23,11.2173112 22.7241539,11 22.3678361,11 Z" id="Shape"></path>
                        <path d="M17.3572035,6.77552058 L19.765219,4.35373878 C20.0725629,4.043813 20.0839063,3.58191622 19.765219,3.24157985 C19.4670323,2.92558835 18.975018,2.91341591 18.6471735,3.24157985 L16.238828,5.66336165 C15.9318141,5.97328742 15.9091685,6.44731566 16.238828,6.77547959 C16.5400259,7.0733149 17.0578206,7.07634776 17.3572035,6.77552058 Z" id="Shape"></path>
                        <path d="M17.3533919,16.2476539 C17.0245361,15.9174487 16.5246538,15.9174487 16.2387191,16.2476539 C15.910151,16.5350523 15.9308715,17.0578875 16.2387191,17.3667305 L18.6390912,19.7729762 C18.8820227,20.0756746 19.5108326,20.0756746 19.7534352,19.7729762 C20.0823321,19.4886295 20.0820444,18.984146 19.7534352,18.6569926 L17.3533919,16.2476539 Z" id="Shape"></path>
                        <path d="M11.4955023,5 C11.7747764,5 12,4.65569391 12,4.21390704 L12,0.78609296 C12.0000259,0.344306086 11.7747764,0 11.4955023,0 C11.2162281,0 11,0.344306086 11,0.78609296 L11,4.21386594 C11,4.65569391 11.2162281,5 11.4955023,5 Z" id="Shape"></path>
                        <path d="M11.4955023,18 C11.2162281,18 11,18.3443061 11,18.7861341 L11,22.213907 C11,22.6282826 11.2162281,23 11.4955023,23 C11.7747764,23 12,22.6282826 12,22.1864546 L12,18.7861341 C12.0000259,18.3443061 11.7747764,18 11.4955023,18 Z" id="Shape"></path>
                        <path d="M15.380925,7.61764923 C14.3078769,6.54561408 13.0164477,6 11.5001294,6 C9.98355233,6 8.68576317,6.54010395 7.60646612,7.61764923 C6.53977794,8.68421123 6,9.98378898 6,11.5 C6,13.016211 6.53349199,14.3212989 7.60646612,15.3933341 C8.67947722,16.4680688 9.98355233,17 11.5001294,17 C13.0164107,17 14.3141999,16.4598961 15.380925,15.3933341 C16.4601851,14.3157888 17,13.016211 17,11.5 C17,9.98378898 16.4538991,8.69242096 15.380925,7.61764923 Z M14.3912212,14.3925608 C13.5945699,15.1876841 12.6309712,15.5879638 11.5001294,15.5879638 C10.3821923,15.5879638 9.41829782,15.1876841 8.62160954,14.3925608 C7.82495823,13.594701 7.42635526,12.6296142 7.42635526,11.5 C7.42635526,10.3813321 7.82495823,9.41901887 8.62160954,8.62112206 C9.41826084,7.82326224 10.3821553,7.42571911 11.5001294,7.42571911 C12.6309712,7.42571911 13.5945699,7.82326224 14.3912212,8.62112206 C15.1881683,9.41898189 15.5865124,10.3813321 15.5865124,11.5 C15.5865124,12.6296142 15.1881683,13.594701 14.3912212,14.3925608 Z" id="Shape"></path>
                        <path d="M5.6699043,6.7705793 C5.82734349,6.92656557 6.01313489,7 6.22789577,7 C6.41368717,7 6.59947858,6.92660683 6.78559919,6.7705793 C7.07146694,6.44024815 7.07146694,5.93862501 6.78559919,5.65111686 L4.35434477,3.21334145 C4.06847702,2.92888618 3.52480569,2.92888618 3.23893794,3.21334145 C2.91006863,3.5436726 2.93080813,4.02388424 3.23893794,4.33284515 L5.6699043,6.7705793 Z" id="Shape"></path>
                        <path d="M5.638578,16.2459133 L3.24566071,18.6383192 C2.9181131,18.9631734 2.9181131,19.4489191 3.24566071,19.7768445 C3.54464217,20.0743852 4.05760337,20.0743852 4.35658484,19.7768445 L6.77806827,17.3571251 C7.08495973,17.0504936 7.06278715,16.531292 6.77806827,16.2459133 C6.45047968,15.9180289 5.96612561,15.9180289 5.638578,16.2459133 Z" id="Shape"></path>
                        <path d="M5,11.4961482 C5,11.2173112 4.65712712,11 4.2143233,11 L0.785676702,11 C0.342872881,11 0,11.2173112 0,11.4961482 C0,11.7749851 0.342872881,12 0.785676702,12 L4.2143233,12 C4.65716823,12 5,11.7749851 5,11.4961482 Z" id="Shape"></path>
                    </g>
                </g>
            </g>
        </g>
    </g>
</svg>