<svg xmlns="http://www.w3.org/2000/svg" xmlns:xlink="http://www.w3.org/1999/xlink" width="24" height="24" viewBox="0 0 24 24"><defs><path id="7y8wa" d="M513 3807a12 12 0 1 1 24 0 12 12 0 0 1-24 0z"/><path id="7y8wc" d="M524.82 3811.25s.25-.03.37-.16c.12-.12.12-.35.12-.35s-.02-1.09.5-1.25c.5-.16 1.14 1.05 1.83 1.51.51.35.9.28.9.28l1.84-.03s.96-.06.5-.8c-.04-.06-.26-.55-1.36-1.55-1.15-1.05-1-.88.39-2.7.84-1.1 1.18-1.78 1.07-2.07-.1-.28-.72-.2-.72-.2h-2.06s-.15-.01-.27.05c-.1.07-.18.22-.18.22s-.32.86-.76 1.59c-.92 1.53-1.28 1.61-1.43 1.52-.35-.22-.27-.9-.27-1.37 0-1.5.23-2.11-.44-2.27a3.57 3.57 0 0 0-.97-.1c-.73 0-1.35 0-1.7.17-.24.12-.42.37-.31.38.13.02.44.09.6.3.22.29.21.93.21.93s.12 1.75-.28 1.97c-.28.15-.66-.16-1.48-1.55-.42-.72-.74-1.5-.74-1.5s-.06-.15-.17-.23c-.13-.1-.31-.13-.31-.13l-1.96.01s-.3.01-.4.14c-.1.11-.01.34-.01.34s1.53 3.54 3.27 5.32c1.6 1.64 3.4 1.53 3.4 1.53z"/><clipPath id="7y8wb"><use fill="#fff" xlink:href="#7y8wa"/></clipPath></defs><g><g transform="translate(-513 -3795)"><g/><g><use fill="#fff" fill-opacity="0" stroke="#f57723" stroke-miterlimit="50" stroke-width="4" clip-path="url(&quot;#7y8wb&quot;)" xlink:href="#7y8wa"/></g><g><use fill="#f57723" xlink:href="#7y8wc"/></g></g></g></svg>